<?xml version="1.0" encoding="iso-8859-1"?>
<!-- Generator: Adobe Illustrator 19.0.0, SVG Export Plug-In . SVG Version: 6.00 Build 0)  -->
<svg version="1.1" id="Layer_1" xmlns="http://www.w3.org/2000/svg" xmlns:xlink="http://www.w3.org/1999/xlink" x="0px" y="0px"
	 viewBox="0 0 512 512" style="enable-background:new 0 0 512 512;" xml:space="preserve">
<path style="fill:#707487;" d="M114.763,347.945l-20.956,9.026c-19.428,8.366-32.014,27.491-32.014,48.644v88.729
	c0,9.751,7.904,17.655,17.655,17.655h353.103c9.751,0,17.655-7.904,17.655-17.655v-88.729c0-21.153-12.586-40.278-32.014-48.646
	l-20.968-9.031L114.763,347.945z"/>
<path style="fill:#553732;" d="M379.586,344.276c0-59.586-26.483-70.621-26.483-123.586h-52.966v114.759L379.586,344.276z"/>
<rect x="194.207" y="282.483" style="fill:#B48764;" width="123.586" height="150.069"/>
<path style="fill:#966D50;" d="M194.207,282.483v77.471c80.126-11.039,123.586-68.643,123.586-68.643v-8.828H194.207z"/>
<polygon style="fill:#D7DEED;" points="273.655,370.759 256,423.724 238.345,370.759 194.207,370.759 194.207,512 317.793,512 
	317.793,370.759 "/>
<path style="fill:#64463C;" d="M256,0c-73.13,0-141.241,79.448-141.241,167.724c0,68.255,68.111,114.759,141.241,114.759
	s141.241-46.504,141.241-114.759C397.241,79.448,329.13,0,256,0z"/>
<path style="fill:#553732;" d="M194.207,61.793c-5.612-15.434-6.528-28.674-5.715-38.93c-42.656,29.825-73.734,85.28-73.734,144.861
	c0,51.176,38.29,90.122,88.276,106.41V80.86C199.766,74.964,196.729,68.728,194.207,61.793z"/>
<path style="fill:#646464;" d="M255.997,264.831c-15.69,0-30.37-3.862-40.276-10.595c-4.025-2.741-5.078-8.233-2.336-12.267
	c2.741-4.025,8.224-5.078,12.267-2.336c6.94,4.724,18.284,7.543,30.345,7.543c12.061,0,23.405-2.819,30.345-7.543
	c4.034-2.75,9.517-1.689,12.267,2.336c2.741,4.025,1.698,9.517-2.336,12.267C286.377,260.969,271.695,264.831,255.997,264.831z"/>
<path style="fill:#C39772;" d="M353.103,168.168V88.276H256h-97.103v79.892c-10.073,2.045-17.655,10.95-17.655,21.625v8.828
	c0,10.676,7.582,19.581,17.655,21.625v20.352c0,15.091,7.71,29.135,20.441,37.237l48.226,30.689
	c17.35,11.041,39.522,11.041,56.872,0l48.226-30.689c12.732-8.102,20.441-22.146,20.441-37.237v-20.352
	c10.073-2.045,17.655-10.95,17.655-21.625v-8.828C370.759,179.116,363.177,170.212,353.103,168.168z"/>
<path style="fill:#553732;" d="M220.69,70.621h-70.621v79.448h8.828c15.078-30.155,42.956-47.366,61.793-57.267V70.621z"/>
<path style="fill:#64463C;" d="M194.207,61.793c35.31,97.103,150.069,88.276,167.724,88.276V60.931C335.231,24.326,296.413,0,256,0
	c-23.772,0-46.964,8.5-67.508,22.863C187.679,33.119,188.595,46.359,194.207,61.793z"/>
<g>
	<path style="fill:#464655;" d="M336.122,512l29.426-105.931l-17.655-17.655l35.31-8.828l13.103-26.207
		c2.402-4.804-0.008-10.623-5.103-12.322l-69.794-23.264L292.519,512H336.122z"/>
	<path style="fill:#464655;" d="M175.878,512l-29.426-105.931l17.655-17.655l-35.31-8.828l-13.103-26.207
		c-2.402-4.804,0.008-10.623,5.103-12.322l69.794-23.264L219.481,512H175.878z"/>
</g>
<g>
	<path style="fill:#E4EAF6;" d="M194.207,308.966l44.138,61.793c0,0-17.655,17.655-35.31,44.138
		c-0.015,0.024-24.471-61.158-32.669-81.666c-1.549-3.875-0.157-8.267,3.316-10.582L194.207,308.966z"/>
	<path style="fill:#E4EAF6;" d="M317.793,308.966l-44.138,61.793c0,0,17.655,17.655,35.31,44.138
		c0.015,0.024,24.471-61.158,32.669-81.666c1.549-3.875,0.157-8.267-3.316-10.582L317.793,308.966z"/>
</g>
<g>
	<path style="fill:#5B5D6E;" d="M116.148,431.816l-44.339-57.007c-6.325,8.82-10.016,19.49-10.016,30.807v88.729
		c0,9.751,7.904,17.655,17.655,17.655h44.138v-58.506C123.586,445.642,120.969,438.014,116.148,431.816z"/>
	<path style="fill:#5B5D6E;" d="M395.852,431.816l44.339-57.007c6.325,8.819,10.016,19.49,10.016,30.807v88.729
		c0,9.751-7.904,17.655-17.655,17.655h-44.138v-58.506C388.414,445.642,391.031,438.014,395.852,431.816z"/>
</g>
<g>
	<path style="fill:#464655;" d="M203.038,194.222c-0.922,0-1.866-0.147-2.793-0.457l-52.966-17.655
		c-4.625-1.543-7.125-6.543-5.582-11.168c1.543-4.621,6.535-7.147,11.168-5.582l52.966,17.655c4.625,1.543,7.125,6.543,5.582,11.168
		C210.18,191.882,206.737,194.222,203.038,194.222z"/>
	<path style="fill:#464655;" d="M308.969,194.222c0.922,0,1.866-0.147,2.793-0.457l52.966-17.655
		c4.625-1.543,7.125-6.543,5.582-11.168c-1.543-4.621-6.535-7.147-11.168-5.582l-52.966,17.655
		c-4.625,1.543-7.125,6.543-5.582,11.168C301.826,191.882,305.271,194.222,308.969,194.222z"/>
</g>
<path style="fill:#FFFFFF;" d="M229.517,211.873h-35.31c-4.875,0-8.828-3.953-8.828-8.828V185.39c0-4.875,3.953-8.828,8.828-8.828
	h35.31c4.875,0,8.828,3.953,8.828,8.828v17.655C238.345,207.922,234.392,211.873,229.517,211.873z"/>
<path style="fill:#5A4137;" d="M211.862,203.046L211.862,203.046c-4.855,0-8.828-3.972-8.828-8.828v-8.828
	c0-4.855,3.972-8.828,8.828-8.828l0,0c4.855,0,8.828,3.972,8.828,8.828v8.828C220.69,199.073,216.717,203.046,211.862,203.046z"/>
<path style="fill:#FFFFFF;" d="M282.483,211.873h35.31c4.875,0,8.828-3.953,8.828-8.828V185.39c0-4.875-3.953-8.828-8.828-8.828
	h-35.31c-4.875,0-8.828,3.953-8.828,8.828v17.655C273.655,207.922,277.608,211.873,282.483,211.873z"/>
<path style="fill:#5A4137;" d="M300.138,203.046L300.138,203.046c-4.855,0-8.828-3.972-8.828-8.828v-8.828
	c0-4.855,3.972-8.828,8.828-8.828l0,0c4.855,0,8.828,3.972,8.828,8.828v8.828C308.966,199.073,304.993,203.046,300.138,203.046z"/>
<path style="fill:#464655;" d="M273.655,203.046c-4.875,0-8.828-3.953-8.828-8.828c0-4.866-3.961-8.828-8.828-8.828
	s-8.828,3.961-8.828,8.828c0,4.875-3.953,8.828-8.828,8.828c-4.875,0-8.828-3.953-8.828-8.828c0-14.603,11.88-26.483,26.483-26.483
	s26.483,11.88,26.483,26.483C282.483,199.093,278.53,203.046,273.655,203.046z"/>
<g>
	<path style="fill:#707487;" d="M238.345,203.046c-4.875,0-8.828-3.953-8.828-8.828v-8.828h-35.31v8.828
		c0,4.875-3.953,8.828-8.828,8.828c-4.875,0-8.828-3.953-8.828-8.828v-8.828c0-9.737,7.918-17.655,17.655-17.655h35.31
		c9.737,0,17.655,7.918,17.655,17.655v8.828C247.172,199.093,243.22,203.046,238.345,203.046z"/>
	<path style="fill:#707487;" d="M326.621,203.046c-4.875,0-8.828-3.953-8.828-8.828v-8.828h-35.31v8.828
		c0,4.875-3.953,8.828-8.828,8.828s-8.828-3.953-8.828-8.828v-8.828c0-9.737,7.918-17.655,17.655-17.655h35.31
		c9.737,0,17.655,7.918,17.655,17.655v8.828C335.448,199.093,331.496,203.046,326.621,203.046z"/>
</g>
<path style="fill:#966D50;" d="M255.997,273.658c-10.75,0-21.164-2.146-30.13-6.207c-4.439-2.017-6.406-7.25-4.396-11.69
	c2.017-4.431,7.233-6.414,11.69-4.396c13.388,6.078,32.319,6.069,45.673,0.009c4.448-2.044,9.681-0.043,11.681,4.388
	c2.017,4.439,0.052,9.673-4.388,11.681C277.178,271.511,266.755,273.658,255.997,273.658z"/>
<g>
</g>
<g>
</g>
<g>
</g>
<g>
</g>
<g>
</g>
<g>
</g>
<g>
</g>
<g>
</g>
<g>
</g>
<g>
</g>
<g>
</g>
<g>
</g>
<g>
</g>
<g>
</g>
<g>
</g>
</svg>
