<svg xmlns="http://www.w3.org/2000/svg" viewBox="0 0 209.82 82.71"><defs><style>.cls-1{fill:#005ea5;}</style></defs><title>logoAsset 1</title><g id="Layer_2" data-name="Layer 2"><g id="Layer_1-2" data-name="Layer 1"><path class="cls-1" d="M68.46,35.92h8.22a29.74,29.74,0,0,1,20.06-22.5l-1-8.14A37.86,37.86,0,0,0,68.46,35.92Z"/><path class="cls-1" d="M115,5l-1,8.08a29.74,29.74,0,0,1,21,22.79h8.22A37.85,37.85,0,0,0,115,5Z"/><path class="cls-1" d="M105.83,20A21.67,21.67,0,0,0,85,35.92H86.3a20.34,20.34,0,0,1,39,0h1.34A21.67,21.67,0,0,0,105.83,20Z"/><polygon class="cls-1" points="97.43 0 113.27 0 111.34 16.41 99.37 16.41 97.43 0"/><path class="cls-1" d="M8.16,80.73V80.2c1.12-.12,1.21-.22,1.2-1.6l0-5.75H9.25l-3.3,7.77H5.53L2.48,73H2.42l-.18,3.9a15.26,15.26,0,0,0,0,2.41c.06.67.36.81,1.34.9v.52H0V80.2c.84-.07,1.12-.34,1.21-.87a23.26,23.26,0,0,0,.31-2.81l.24-3c.12-1.7,0-1.91-1.27-2V71H3.59l2.88,6.55L9.4,71h3v.52c-1.2.12-1.26.24-1.23,1.48l.13,5.59c0,1.38.11,1.48,1.27,1.6v.52Z"/><path class="cls-1" d="M24,71.53c-.82,0-1.2.36-1.27.88a12.21,12.21,0,0,0-.14,2.08v1.63a5.22,5.22,0,0,1-1.08,3.74,3.81,3.81,0,0,1-2.77,1.09,4.19,4.19,0,0,1-2.65-.78c-.85-.66-1.24-1.76-1.24-3.51V73.15c0-1.41-.15-1.51-1.26-1.61V71h4.5v.52c-1.09.1-1.24.21-1.24,1.61v3.24c0,2.24.81,3.54,2.42,3.54,1.78,0,2.56-1.35,2.56-3.84v-1.6a11.74,11.74,0,0,0-.15-2.08c-.07-.52-.43-.82-1.45-.88V71H24Z"/><path class="cls-1" d="M34,80.86h-.45c-1.88-.09-2.47-.51-3.06-1.45-.39-.61-.79-1.42-1.23-2.2a1,1,0,0,0-1-.66H28v2.18c0,1.23.15,1.38,1.27,1.48v.52H24.72V80.2c1.12-.1,1.29-.25,1.29-1.48V73c0-1.2-.13-1.34-1.23-1.45V71H29a4.44,4.44,0,0,1,2.66.57,2.28,2.28,0,0,1,1,2A2.59,2.59,0,0,1,30.79,76c.21.43.78,1.43,1.21,2.12a12.54,12.54,0,0,0,1.15,1.61,2.18,2.18,0,0,0,.91.64ZM28.35,76a1.94,1.94,0,0,0,2.18-2.18c0-1.58-.93-2.17-1.76-2.17a1,1,0,0,0-.67.15c-.1.09-.13.24-.13.55V76Z"/><path class="cls-1" d="M38.95,71a4.46,4.46,0,0,1,2.62.58,2.53,2.53,0,0,1,1.11,2.2,3.09,3.09,0,0,1-3,3.11,5,5,0,0,1-.63,0l-1-.24v2c0,1.27.14,1.38,1.42,1.48v.51H34.75v-.51C35.87,80.11,36,80,36,78.74V73c0-1.27-.13-1.36-1.17-1.48V71Zm-1,5.08a2.28,2.28,0,0,0,.81.15c.55,0,1.75-.39,1.75-2.41,0-1.69-1-2.24-1.87-2.24a.87.87,0,0,0-.55.15.63.63,0,0,0-.14.46Z"/><path class="cls-1" d="M54.37,71.53c-1.17.1-1.25.19-1.25,1.46v5.75c0,1.25.12,1.35,1.25,1.45v.52H49.81V80.2c1.2-.1,1.3-.21,1.3-1.46V76H47v2.78c0,1.27.12,1.36,1.23,1.46v.52H43.8V80.2C44.9,80.1,45,80,45,78.74V73c0-1.27-.13-1.36-1.29-1.46V71h4.48v.52c-1.08.1-1.2.19-1.2,1.46v2.2h4.08V73c0-1.27-.12-1.36-1.22-1.46V71h4.48Z"/><path class="cls-1" d="M64.73,71.53c-1,.1-1.26.37-1.79,1.25s-.94,1.52-1.67,2.93a1.79,1.79,0,0,0-.27,1v1.91c0,1.35.12,1.44,1.45,1.55v.51H57.58v-.51C58.86,80.11,59,80,59,78.66V77a1.53,1.53,0,0,0-.19-.81c-.4-.82-1-1.82-1.85-3.39-.55-1-.81-1.15-1.63-1.27V71h4.28v.52c-1,.13-1,.33-.7.87.52,1,1.12,2.14,1.7,3.24.43-.85,1.2-2.26,1.55-3.17.24-.6.22-.79-.88-.94V71h3.47Z"/><path class="cls-1" d="M79.35,74.87a2.08,2.08,0,0,0-1.78,1c-.42.52-.79,1.09-1.26,1.75a19.68,19.68,0,0,1,2.59,3.14l-.09.18a4.57,4.57,0,0,1-2.57-.54c-.19-.2-.63-.7-1.18-1.24a3.73,3.73,0,0,1-2.88,1.78A2.93,2.93,0,0,1,69,78.15c0-1.26.76-1.79,2.09-2.72a2.87,2.87,0,0,1-1-2.12,2.66,2.66,0,0,1,2.72-2.5A2.29,2.29,0,0,1,75.4,73a1.51,1.51,0,0,1-.64,1.23,10.4,10.4,0,0,1-1.19.88c.43.37,1.29,1.12,2.33,2.09a12.76,12.76,0,0,0,.73-1.29c.3-.67.19-.88-.82-1v-.51h3.54ZM72.9,79.57a2.51,2.51,0,0,0,1.76-.87c-1.11-1.12-1.87-1.78-3.14-2.88a2.48,2.48,0,0,0-.63,1.64,1.94,1.94,0,0,0,2,2.11Zm-.19-8.19c-.57,0-1,.63-1,1.33s.4,1.24,1.42,2a2.33,2.33,0,0,0,.75-1.84c0-.78-.39-1.52-1.15-1.52Z"/><path class="cls-1" d="M94,76.6c-.75.15-.84.21-.84,1.21V79a7.83,7.83,0,0,0,.09,1.41,14.66,14.66,0,0,1-3.41.55c-3.47,0-5.69-2-5.69-5,0-3.41,2.77-5.2,5.92-5.2A13.13,13.13,0,0,1,93,71.2c0,.52.12,1.3.24,2.48l-.55.1a2.78,2.78,0,0,0-2.9-2.38c-1.79,0-3.35,1.61-3.35,4.3,0,2.26,1.11,4.6,3.56,4.6a1.61,1.61,0,0,0,.84-.18c.22-.13.34-.37.34-.82V77.9c0-1-.07-1.17-1.64-1.3v-.51H94Z"/><path class="cls-1" d="M104.32,80.86h-.45c-1.88-.09-2.47-.51-3.06-1.45-.39-.61-.79-1.42-1.22-2.2a1,1,0,0,0-1-.66h-.28v2.18c0,1.23.15,1.38,1.27,1.48v.52H95.07V80.2c1.12-.1,1.29-.25,1.29-1.48V73c0-1.2-.13-1.34-1.23-1.45V71h4.2a4.44,4.44,0,0,1,2.66.57,2.28,2.28,0,0,1,1,2A2.59,2.59,0,0,1,101.14,76c.21.43.78,1.43,1.21,2.12a12.59,12.59,0,0,0,1.15,1.61,2.19,2.19,0,0,0,.91.64ZM98.7,76a1.94,1.94,0,0,0,2.18-2.18c0-1.58-.93-2.17-1.76-2.17a1,1,0,0,0-.67.15c-.1.09-.14.24-.14.55V76Z"/><path class="cls-1" d="M110.67,80.73V80.2c.88-.13,1-.31.72-1-.15-.45-.37-1.08-.6-1.69h-2.87c-.17.46-.36,1-.54,1.6s-.18.93.91,1.06v.52h-3.35V80.2c1-.12,1.17-.28,1.66-1.54L109.68,71l.76-.19c1,2.62,1.88,5.22,2.85,7.79.51,1.32.7,1.51,1.64,1.63v.52Zm-1.27-7.2h0c-.42,1.09-.79,2.17-1.18,3.23h2.33Z"/><path class="cls-1" d="M126.2,71.53c-.81,0-1.12.24-1.2.93a21.17,21.17,0,0,0-.13,2.48v5.93h-.72l-6.22-7.44h0v3.36a20.8,20.8,0,0,0,.12,2.42c.08.66.33.94,1.43,1v.52h-3.66V80.2c.84-.06,1.18-.3,1.24-.94a17.55,17.55,0,0,0,.15-2.47V73.67c0-1,0-1.26-.31-1.6a1.53,1.53,0,0,0-1.24-.54V71h2.76l5.71,6.56h.06V74.94c0-1.32-.09-2-.12-2.45-.07-.64-.39-.9-1.48-1V71h3.65Z"/><path class="cls-1" d="M135.26,73.57A3.26,3.26,0,0,0,134.6,72c-.25-.27-.64-.36-1.51-.36h-.69v7.07c0,1.27.15,1.36,1.46,1.46v.52H129V80.2c1.26-.1,1.41-.19,1.41-1.46V71.67h-.51c-1.23,0-1.5.17-1.72.4a3.76,3.76,0,0,0-.63,1.51H127c.06-1.09.15-2.18.18-2.95h.36c.24.34.43.37.85.37h6a1,1,0,0,0,.87-.37h.36c0,.63.09,1.94.16,2.9Z"/><path class="cls-1" d="M144.51,78.2c-.12.63-.43,2.12-.55,2.53h-7.28V80.2c1.3-.1,1.45-.21,1.45-1.46V73c0-1.29-.15-1.37-1.29-1.48V71h4.57v.52c-1.15.1-1.29.19-1.29,1.48v5.83c0,.7.06,1,.38,1.11a3.27,3.27,0,0,0,1.12.13,1.92,1.92,0,0,0,1.53-.51A4.88,4.88,0,0,0,144,78Z"/><path class="cls-1" d="M151,80.73V80.2c.88-.13,1-.31.72-1-.15-.45-.37-1.08-.6-1.69h-2.87c-.16.46-.36,1-.54,1.6s-.18.93.91,1.06v.52h-3.35l0-.52c1-.12,1.17-.28,1.66-1.54L150.05,71l.76-.19c1,2.62,1.88,5.22,2.85,7.79.51,1.32.7,1.51,1.64,1.63v.52Zm-1.27-7.2h0c-.42,1.09-.79,2.17-1.18,3.23h2.33Z"/><path class="cls-1" d="M166.57,71.53c-.81,0-1.12.24-1.2.93a21.08,21.08,0,0,0-.14,2.48v5.93h-.72l-6.22-7.44h0v3.36a20.73,20.73,0,0,0,.12,2.42c.07.66.33.94,1.43,1v.52h-3.66V80.2c.84-.06,1.18-.3,1.24-.94a17.69,17.69,0,0,0,.15-2.47V73.67c0-1,0-1.26-.31-1.6a1.53,1.53,0,0,0-1.24-.54V71h2.76l5.71,6.56h.06V74.94c0-1.32-.09-2-.12-2.45-.07-.64-.39-.9-1.48-1V71h3.65Z"/><path class="cls-1" d="M172.07,71a6,6,0,0,1,4.29,1.3,4.3,4.3,0,0,1,1.32,3.17,4.81,4.81,0,0,1-1.87,4,7.42,7.42,0,0,1-4.53,1.24h-3.84V80.2c1.18-.1,1.33-.21,1.33-1.48V73c0-1.29-.13-1.37-1.2-1.48V71Zm-1.3,7.62c0,1.08.22,1.45,1.27,1.45,2,0,3.38-1.64,3.38-4.3a4.54,4.54,0,0,0-1.11-3.23,3.32,3.32,0,0,0-2.44-.93,1.54,1.54,0,0,0-.94.21c-.13.13-.17.39-.17.82Z"/><path class="cls-1" d="M179.48,78.32a1.89,1.89,0,0,1,1.72,1.9c0,1.39-1.3,2.2-2.53,2.5l-.19-.52c.91-.37,1.35-.82,1.35-1.45s-.37-1-1.09-1.11a.64.64,0,0,1-.21-.54.86.86,0,0,1,.94-.78Z"/><path class="cls-1" d="M190,71a4.46,4.46,0,0,1,2.61.58,2.53,2.53,0,0,1,1.11,2.2,3.09,3.09,0,0,1-3,3.11,5,5,0,0,1-.63,0l-1-.24v2c0,1.27.13,1.38,1.42,1.48v.51h-4.65v-.51c1.12-.1,1.26-.21,1.26-1.48V73c0-1.27-.13-1.36-1.17-1.48V71Zm-1,5.08a2.27,2.27,0,0,0,.81.15c.55,0,1.75-.39,1.75-2.41,0-1.69-1-2.24-1.87-2.24a.87.87,0,0,0-.55.15.64.64,0,0,0-.13.46Z"/><path class="cls-1" d="M194,80.9A1.08,1.08,0,0,1,193,79.77a1.11,1.11,0,1,1,1.09,1.14Z"/><path class="cls-1" d="M202.11,80.73V80.2c.88-.13,1-.31.72-1-.15-.45-.37-1.08-.6-1.69h-2.87c-.16.46-.36,1-.54,1.6s-.18.93.91,1.06v.52h-3.35V80.2c1-.12,1.17-.28,1.66-1.54L201.12,71l.76-.19c1,2.62,1.88,5.22,2.85,7.79.51,1.32.7,1.51,1.64,1.63v.52Zm-1.27-7.2h0c-.42,1.09-.79,2.17-1.18,3.23h2.33Z"/><path class="cls-1" d="M208.68,80.9a1.08,1.08,0,0,1-1.08-1.14,1.11,1.11,0,1,1,1.09,1.14Z"/><path class="cls-1" d="M80.1,62.95V61.79c2.74-.25,2.88-.49,2.85-3.91l-.07-13.83h-.14L74.65,62.7h-.88L66.34,44.44h-.11l-.46,9.47a45,45,0,0,0,0,5.77c.11,1.58.85,1.9,3.2,2.11v1.16H60.57V61.79c2-.18,2.67-.74,2.92-2.08a55.35,55.35,0,0,0,.7-6.54l.53-7.11c.28-4.19,0-4.58-3-4.86V40.08h6.72l7.25,16.19L83,40.08h6.69V41.2c-2.92.28-3.1.49-3,3.66l.35,13c.07,3.41.21,3.63,3.06,3.91v1.16Z"/><path class="cls-1" d="M121.8,49.09a4.73,4.73,0,0,0-4.15,2.43c-1,1.3-1.87,2.67-3,4.33a43.27,43.27,0,0,1,5.95,7.25l-.21.39c-2.92-.07-5-.88-5.42-1.34s-1.65-1.83-2.89-3.06c-2.32,3.06-4.61,4.36-7,4.36-4.64,0-7.21-3.45-7.21-6.48s2-4.4,5.07-6.55a6.69,6.69,0,0,1-2.43-5,6.08,6.08,0,0,1,6.16-5.81c3.31,0,5.7,2.15,5.7,5a3.87,3.87,0,0,1-1.48,3A34.49,34.49,0,0,1,108,49.75c1.09.91,3.27,2.82,5.67,5.14a28.2,28.2,0,0,0,1.87-3.41c.7-1.58.42-2.08-2-2.39l0-1.13h8.23ZM106.53,60.52a6.36,6.36,0,0,0,4.64-2.46,88.53,88.53,0,0,0-7.32-6.79,5.68,5.68,0,0,0-2.11,4.29,4.65,4.65,0,0,0,4.75,5ZM106.32,41c-1.44,0-2.53,1.44-2.53,3.27s1,3,3.27,4.75a5.26,5.26,0,0,0,2.08-4.4c0-1.9-1-3.62-2.78-3.62Z"/><path class="cls-1" d="M150.34,53.27c-1.9.32-2.08.49-2.08,2.74v2.85a16,16,0,0,0,.25,3.34,36.92,36.92,0,0,1-8,1.27c-8,0-13.23-4.68-13.23-11.72,0-8.09,6.51-12.21,13.76-12.21a27.74,27.74,0,0,1,6.83,1c.11,1.2.28,3.1.56,5.67l-1.2.25c-.88-4.08-3.48-5.56-6.83-5.56-4.65,0-8.41,3.87-8.41,10.27,0,5.24,2.75,10.91,8.9,10.91a4.78,4.78,0,0,0,2.36-.49c.6-.35.92-.88.92-2.08v-3.2c0-2.5-.21-2.75-3.8-3.06V52.15h10Z"/></g></g></svg>