<?xml version="1.0" encoding="iso-8859-1"?>
<svg xmlns="http://www.w3.org/2000/svg" xmlns:xlink="http://www.w3.org/1999/xlink" version="1.1" viewBox="0 0 463 463" enable-background="new 0 0 463 463" width="512px" height="512px">
  <path d="m372.96,351.135l-57.626-14.407-17.293-17.293c-3.015-3.015-7.027-4.516-11.042-4.498v-13.947c2.614-1.831 5.158-3.794 7.633-5.868 3.103-0.62 24.419-5.017 46.099-12.908 33.826-12.311 50.269-26.283 50.269-42.714 0-95.671-22.196-164.244-65.971-203.814-34.349-31.05-73.342-35.686-93.529-35.686s-59.18,4.636-93.529,35.686c-43.775,39.57-65.971,108.143-65.971,203.814 0,16.431 16.443,30.403 50.268,42.714 21.68,7.891 42.996,12.288 46.099,12.908 2.476,2.074 5.019,4.037 7.633,5.868v13.947c-4.015-0.018-8.027,1.483-11.042,4.498l-17.293,17.293-57.625,14.407c-24.753,6.187-42.04,28.328-42.04,53.842v34.523c0,12.958 10.542,23.5 23.5,23.5h320c12.958,0 23.5-10.542 23.5-23.5v-34.523c0-25.514-17.287-47.655-42.04-53.842zm-85.525-21.093l14.269,14.269-31.396,43.955c-0.034,0.048-0.125,0.175-0.339,0.205-0.215,0.029-0.335-0.068-0.381-0.104l-26.331-21.065 43.499-37.285c0.196-0.171 0.495-0.16 0.679,0.025zm-152.435-146.542c0-17.563 3.139-35.005 9.123-50.918 16.925,7.965 45.096,16.976 78.009,24.844 37.496,8.964 75.55,15.121 105.763,17.162 0.063,3.542 0.106,7.37 0.106,8.912 0,36.161-12.824,68.649-33.089,90.755-7.551,0.032-15.91-1.141-25.054-3.524 0.739-2.279 1.143-4.708 1.143-7.231 0-12.958-10.542-23.5-23.5-23.5s-23.501,10.542-23.501,23.5 10.542,23.5 23.5,23.5c4.526,0 8.756-1.29 12.346-3.516 6.848,2.078 13.389,3.595 19.617,4.551-14.137,10.153-30.517,15.965-47.963,15.965-53.21,0-96.5-54.056-96.5-120.5zm-11.75,32.5h-11.75c-0.276,0-0.5-0.224-0.5-0.5v-40c0-0.276 0.224-0.5 0.5-0.5h8.724c-0.148,2.828-0.224,5.663-0.224,8.5 0,11.2 1.132,22.084 3.25,32.5zm199.857,50.168c-1.718,1.22-3.536,2.296-5.446,3.241 7.711-11.401 13.919-24.355 18.262-38.409h7.165c-1.692,9.501-6.481,25.583-19.981,35.168zm28.893-50.668c0,0.276-0.224,0.5-0.5,0.5h-11.75c2.118-10.416 3.25-21.3 3.25-32.5 0-1.355-0.036-4.767-0.092-8.2h8.592c0.276,0 0.5,0.224 0.5,0.5v39.7zm-104.5,56.5c-4.687,0-8.5-3.813-8.5-8.5s3.813-8.5 8.5-8.5 8.5,3.813 8.5,8.5-3.813,8.5-8.5,8.5zm-160.5-32.5c0-91.251 20.533-156.08 61.029-192.687 30.622-27.68 65.441-31.813 83.471-31.813s52.849,4.133 83.471,31.813c40.496,36.607 61.029,101.436 61.029,192.687 0,8.45-12.953,17.141-30.169,24.528 8.776-12.748 11.71-27.022 12.683-34.723 5.028-2.565 8.486-7.783 8.486-13.804v-39.7c0-8.547-6.953-15.5-15.5-15.5h-14.22c-0.55-0.158-1.122-0.263-1.717-0.292-64.854-3.111-162.853-27.611-191.483-44.33-1.84-1.074-4.05-1.315-6.08-0.663-2.029,0.653-3.684,2.138-4.552,4.084-5.702,12.782-9.649,26.635-11.73,40.9h-10.218c-8.547,0-15.5,6.953-15.5,15.5v40c0,8.547 6.953,15.5 15.5,15.5h15.577c5.096,16.491 12.764,31.464 22.409,44.194-30.329-8.463-62.486-22.379-62.486-35.694zm144.5,79.5c14.28,0 27.94-3.283 40.5-9.255v13.162l-40.5,34.714-40.5-34.713v-13.162c12.56,5.971 26.22,9.254 40.5,9.254zm-55.935,11.042c0.183-0.184 0.482-0.196 0.679-0.026l43.499,37.285-26.331,21.065c-0.046,0.037-0.168,0.135-0.382,0.105-0.213-0.03-0.305-0.157-0.338-0.205l-31.396-43.956 14.269-14.268zm-81.888,35.645l54.688-13.672 32.122,44.971c2.464,3.448 6.284,5.76 10.482,6.343 0.703,0.098 1.407,0.146 2.11,0.146 3.5,0 6.947-1.19 9.703-3.395l21.218-16.975v40.395c0,4.142 3.358,7.5 7.5,7.5s7.5-3.358 7.5-7.5v-40.395l21.218,16.975c2.756,2.205 6.202,3.394 9.702,3.394 0.703,0 1.409-0.048 2.111-0.146 4.198-0.583 8.018-2.895 10.482-6.343l32.122-44.97 54.688,13.672c1.609,0.402 3.173,0.901 4.691,1.482l-28.858,34.63c-5.904,7.084-9.155,16.065-9.155,25.287v20.914h-209.001v-20.915c0-9.222-3.251-18.203-9.155-25.287l-28.858-34.63c1.517-0.58 3.081-1.079 4.69-1.481zm-30.677,73.813v-34.523c0-11.667 4.955-22.367 13.1-29.842l30.222,36.266c3.662,4.395 5.679,9.965 5.679,15.685v20.914h-40.501c-4.687,0-8.5-3.813-8.5-8.5zm337,0c0,4.687-3.813,8.5-8.5,8.5h-40.5v-20.915c0-5.72 2.017-11.29 5.679-15.685l30.222-36.266c8.144,7.475 13.1,18.175 13.1,29.842v34.524z" fill="#2393b3"/>
</svg>
