<?xml version="1.0" encoding="utf-8"?>
<!-- Generator: Adobe Illustrator 19.1.0, SVG Export Plug-In . SVG Version: 6.00 Build 0)  -->
<svg version="1.1" id="Layer_1" xmlns="http://www.w3.org/2000/svg" xmlns:xlink="http://www.w3.org/1999/xlink" x="0px" y="0px"
	 viewBox="0 0 216 144" style="enable-background:new 0 0 216 144;" xml:space="preserve">
<style type="text/css">
	.st0{fill:#005EA5;}
</style>
<g>
	<path class="st0" d="M70.7,61.5h8.2C81,50.9,88.8,42.3,99,39l-1-8.1C83.8,34.8,73,46.8,70.7,61.5z"/>
	<path class="st0" d="M117.2,30.7l-1,8.1c10.6,3,18.8,11.8,21,22.8h8.2C143.1,46.4,131.8,34.3,117.2,30.7z"/>
	<path class="st0" d="M108,45.6c-10,0-18.4,6.8-20.9,15.9h1.3C91,53.1,98.8,46.9,108,46.9c9.2,0,17.1,6.2,19.5,14.6h1.3
		C126.4,52.4,118,45.6,108,45.6z"/>
</g>
<polygon class="st0" points="99.6,25.6 115.5,25.6 113.6,42 101.6,42 "/>
<g>
	<path class="st0" d="M10.4,106.3v-0.5c1.1-0.1,1.2-0.2,1.2-1.6l0-5.8h-0.1l-3.3,7.8H7.7l-3-7.6H4.6l-0.2,3.9
		c-0.1,1.2-0.1,1.9,0,2.4c0.1,0.7,0.4,0.8,1.3,0.9v0.5H2.2v-0.5c0.8-0.1,1.1-0.3,1.2-0.9c0.1-0.5,0.2-1.3,0.3-2.8l0.2-3
		c0.1-1.7,0-1.9-1.3-2v-0.5h3.1l2.9,6.5l2.9-6.5h3v0.5c-1.2,0.1-1.3,0.2-1.2,1.5l0.1,5.6c0,1.4,0.1,1.5,1.3,1.6v0.5H10.4z"/>
	<path class="st0" d="M26.2,97.2c-0.8,0-1.2,0.4-1.3,0.9c-0.1,0.5-0.1,1-0.1,2.1v1.6c0,1.6-0.2,2.8-1.1,3.7
		c-0.7,0.7-1.7,1.1-2.8,1.1c-1,0-1.9-0.2-2.6-0.8c-0.9-0.7-1.2-1.8-1.2-3.5v-3.5c0-1.4-0.1-1.5-1.3-1.6v-0.5h4.5v0.5
		c-1.1,0.1-1.2,0.2-1.2,1.6v3.2c0,2.2,0.8,3.5,2.4,3.5c1.8,0,2.6-1.3,2.6-3.8v-1.6c0-1.1-0.1-1.6-0.1-2.1c-0.1-0.5-0.4-0.8-1.5-0.9
		v-0.5h3.8V97.2z"/>
	<path class="st0" d="M36.2,106.5c-0.1,0-0.3,0-0.4,0c-1.9-0.1-2.5-0.5-3.1-1.5c-0.4-0.6-0.8-1.4-1.2-2.2c-0.2-0.5-0.5-0.6-1-0.7
		h-0.3v2.2c0,1.2,0.1,1.4,1.3,1.5v0.5h-4.5v-0.5c1.1-0.1,1.3-0.3,1.3-1.5v-5.7c0-1.2-0.1-1.3-1.2-1.4v-0.5h4.2
		c1.3,0,2.1,0.2,2.7,0.6c0.6,0.4,1,1.1,1,2c0,1.3-0.9,2-1.9,2.4c0.2,0.4,0.8,1.4,1.2,2.1c0.5,0.8,0.9,1.3,1.2,1.6
		c0.3,0.3,0.6,0.5,0.9,0.6L36.2,106.5z M30.6,101.6c0.6,0,1.1-0.1,1.5-0.4c0.5-0.4,0.7-1,0.7-1.8c0-1.6-0.9-2.2-1.8-2.2
		c-0.4,0-0.6,0.1-0.7,0.1c-0.1,0.1-0.1,0.2-0.1,0.6v3.6H30.6z"/>
	<path class="st0" d="M41.2,96.6c1.2,0,2,0.2,2.6,0.6c0.7,0.5,1.1,1.2,1.1,2.2c0,2-1.5,2.9-3,3.1c-0.2,0-0.5,0-0.6,0l-1-0.2v2
		c0,1.3,0.1,1.4,1.4,1.5v0.5H37v-0.5c1.1-0.1,1.3-0.2,1.3-1.5v-5.7c0-1.3-0.1-1.4-1.2-1.5v-0.5H41.2z M40.2,101.7
		c0.2,0.1,0.5,0.1,0.8,0.1c0.6,0,1.7-0.4,1.7-2.4c0-1.7-1-2.2-1.9-2.2c-0.3,0-0.5,0.1-0.6,0.1c-0.1,0.1-0.1,0.2-0.1,0.5V101.7z"/>
	<path class="st0" d="M56.6,97.2c-1.2,0.1-1.3,0.2-1.3,1.5v5.8c0,1.3,0.1,1.3,1.3,1.4v0.5H52v-0.5c1.2-0.1,1.3-0.2,1.3-1.5v-2.8
		h-4.1v2.8c0,1.3,0.1,1.4,1.2,1.5v0.5H46v-0.5c1.1-0.1,1.2-0.2,1.2-1.5v-5.7c0-1.3-0.1-1.4-1.3-1.5v-0.5h4.5v0.5
		c-1.1,0.1-1.2,0.2-1.2,1.5v2.2h4.1v-2.2c0-1.3-0.1-1.4-1.2-1.5v-0.5h4.5V97.2z"/>
	<path class="st0" d="M66.9,97.2c-1,0.1-1.3,0.4-1.8,1.3c-0.6,0.9-0.9,1.5-1.7,2.9c-0.2,0.4-0.3,0.6-0.3,1v1.9
		c0,1.3,0.1,1.4,1.4,1.6v0.5h-4.9v-0.5c1.3-0.1,1.4-0.2,1.4-1.6v-1.7c0-0.4-0.1-0.5-0.2-0.8c-0.4-0.8-1-1.8-1.9-3.4
		c-0.6-1-0.8-1.2-1.6-1.3v-0.5h4.3v0.5c-1,0.1-1,0.3-0.7,0.9c0.5,1,1.1,2.1,1.7,3.2c0.4-0.9,1.2-2.3,1.6-3.2
		c0.2-0.6,0.2-0.8-0.9-0.9v-0.5h3.5V97.2z"/>
	<path class="st0" d="M81.6,100.5c-0.9,0.1-1.2,0.3-1.8,1c-0.4,0.5-0.8,1.1-1.3,1.7c1,0.9,1.9,2.1,2.6,3.1l-0.1,0.2
		c-1.5,0-2.4-0.3-2.6-0.5c-0.2-0.2-0.6-0.7-1.2-1.2c-0.9,1.2-1.9,1.8-2.9,1.8c-2,0-3.1-1.5-3.1-2.8c0-1.3,0.8-1.8,2.1-2.7
		c-0.6-0.6-1-1.2-1-2.1c0-1.3,1.2-2.5,2.7-2.5c1.5,0,2.5,0.9,2.5,2.2c0,0.5-0.2,0.9-0.6,1.2c-0.3,0.3-0.7,0.6-1.2,0.9
		c0.4,0.4,1.3,1.1,2.3,2.1c0.3-0.4,0.5-0.8,0.7-1.3c0.3-0.7,0.2-0.9-0.8-1V100h3.5V100.5z M75.1,105.2c0.7,0,1.4-0.4,1.8-0.9
		c-1.1-1.1-1.9-1.8-3.1-2.9c-0.4,0.4-0.6,1.1-0.6,1.6C73.1,104.5,74.1,105.2,75.1,105.2L75.1,105.2z M74.9,97c-0.6,0-1,0.6-1,1.3
		c0,0.7,0.4,1.2,1.4,2c0.4-0.3,0.7-0.9,0.7-1.8C76.1,97.7,75.7,97,74.9,97L74.9,97z"/>
	<path class="st0" d="M96.2,102.2c-0.7,0.1-0.8,0.2-0.8,1.2v1.2c0,0.5,0,1,0.1,1.4c-0.9,0.2-2.2,0.6-3.4,0.6c-3.5,0-5.7-2-5.7-5
		c0-3.4,2.8-5.2,5.9-5.2c1.2,0,2.4,0.3,2.9,0.4c0,0.5,0.1,1.3,0.2,2.5l-0.6,0.1C94.5,97.7,93.4,97,92,97c-1.8,0-3.3,1.6-3.3,4.3
		c0,2.3,1.1,4.6,3.6,4.6c0.3,0,0.6,0,0.8-0.2c0.2-0.1,0.3-0.4,0.3-0.8v-1.4c0-1-0.1-1.2-1.6-1.3v-0.5h4.5V102.2z"/>
	<path class="st0" d="M106.5,106.5c-0.1,0-0.3,0-0.4,0c-1.9-0.1-2.5-0.5-3.1-1.5c-0.4-0.6-0.8-1.4-1.2-2.2c-0.2-0.5-0.5-0.6-1-0.7
		h-0.3v2.2c0,1.2,0.1,1.4,1.3,1.5v0.5h-4.5v-0.5c1.1-0.1,1.3-0.3,1.3-1.5v-5.7c0-1.2-0.1-1.3-1.2-1.4v-0.5h4.2
		c1.3,0,2.1,0.2,2.7,0.6c0.6,0.4,1,1.1,1,2c0,1.3-0.9,2-1.9,2.4c0.2,0.4,0.8,1.4,1.2,2.1c0.5,0.8,0.9,1.3,1.2,1.6
		c0.3,0.3,0.6,0.5,0.9,0.6L106.5,106.5z M100.9,101.6c0.6,0,1.1-0.1,1.5-0.4c0.5-0.4,0.7-1,0.7-1.8c0-1.6-0.9-2.2-1.8-2.2
		c-0.4,0-0.6,0.1-0.7,0.1c-0.1,0.1-0.1,0.2-0.1,0.6v3.6H100.9z"/>
	<path class="st0" d="M112.9,106.3v-0.5c0.9-0.1,1-0.3,0.7-1c-0.1-0.4-0.4-1.1-0.6-1.7h-2.9c-0.2,0.5-0.4,1-0.5,1.6
		c-0.2,0.7-0.2,0.9,0.9,1.1v0.5h-3.3l0-0.5c1-0.1,1.2-0.3,1.7-1.5l3.1-7.7l0.8-0.2c1,2.6,1.9,5.2,2.9,7.8c0.5,1.3,0.7,1.5,1.6,1.6
		v0.5H112.9z M111.6,99.1L111.6,99.1c-0.5,1.1-0.8,2.2-1.2,3.2h2.3L111.6,99.1z"/>
	<path class="st0" d="M128.4,97.2c-0.8,0-1.1,0.2-1.2,0.9c0,0.5-0.1,1.2-0.1,2.5v5.9h-0.7l-6.2-7.4h0v3.4c0,1.3,0.1,2,0.1,2.4
		c0.1,0.7,0.3,0.9,1.4,1v0.5H118v-0.5c0.8-0.1,1.2-0.3,1.2-0.9c0.1-0.5,0.1-1.2,0.1-2.5v-3.1c0-1,0-1.3-0.3-1.6
		c-0.3-0.4-0.6-0.5-1.2-0.5v-0.5h2.8l5.7,6.6h0.1v-2.6c0-1.3-0.1-2-0.1-2.5c-0.1-0.6-0.4-0.9-1.5-1v-0.5h3.6V97.2z"/>
	<path class="st0" d="M137.5,99.2c-0.2-0.8-0.4-1.3-0.7-1.5c-0.3-0.3-0.6-0.4-1.5-0.4h-0.7v7.1c0,1.3,0.1,1.4,1.5,1.5v0.5h-4.9v-0.5
		c1.3-0.1,1.4-0.2,1.4-1.5v-7.1h-0.5c-1.2,0-1.5,0.2-1.7,0.4c-0.2,0.3-0.4,0.8-0.6,1.5h-0.5c0.1-1.1,0.1-2.2,0.2-2.9h0.4
		c0.2,0.3,0.4,0.4,0.9,0.4h6c0.4,0,0.6-0.1,0.9-0.4h0.4c0,0.6,0.1,1.9,0.2,2.9L137.5,99.2z"/>
	<path class="st0" d="M146.7,103.8c-0.1,0.6-0.4,2.1-0.6,2.5h-7.3v-0.5c1.3-0.1,1.4-0.2,1.4-1.5v-5.7c0-1.3-0.1-1.4-1.3-1.5v-0.5
		h4.6v0.5c-1.1,0.1-1.3,0.2-1.3,1.5v5.8c0,0.7,0.1,1,0.4,1.1c0.3,0.1,0.7,0.1,1.1,0.1c0.6,0,1.2-0.1,1.5-0.5
		c0.3-0.3,0.6-0.8,0.8-1.5L146.7,103.8z"/>
	<path class="st0" d="M153.3,106.3v-0.5c0.9-0.1,1-0.3,0.7-1c-0.1-0.4-0.4-1.1-0.6-1.7h-2.9c-0.2,0.5-0.4,1-0.5,1.6
		c-0.2,0.7-0.2,0.9,0.9,1.1v0.5h-3.3l0-0.5c1-0.1,1.2-0.3,1.7-1.5l3.1-7.7l0.8-0.2c1,2.6,1.9,5.2,2.9,7.8c0.5,1.3,0.7,1.5,1.6,1.6
		v0.5H153.3z M152,99.1L152,99.1c-0.5,1.1-0.8,2.2-1.2,3.2h2.3L152,99.1z"/>
	<path class="st0" d="M168.8,97.2c-0.8,0-1.1,0.2-1.2,0.9c0,0.5-0.1,1.2-0.1,2.5v5.9h-0.7l-6.2-7.4h0v3.4c0,1.3,0.1,2,0.1,2.4
		c0.1,0.7,0.3,0.9,1.4,1v0.5h-3.7v-0.5c0.8-0.1,1.2-0.3,1.2-0.9c0.1-0.5,0.1-1.2,0.1-2.5v-3.1c0-1,0-1.3-0.3-1.6
		c-0.3-0.4-0.6-0.5-1.2-0.5v-0.5h2.8l5.7,6.6h0.1v-2.6c0-1.3-0.1-2-0.1-2.5c-0.1-0.6-0.4-0.9-1.5-1v-0.5h3.6V97.2z"/>
	<path class="st0" d="M174.3,96.6c1.9,0,3.3,0.4,4.3,1.3c0.7,0.7,1.3,1.8,1.3,3.2c0,1.8-0.7,3.1-1.9,4c-1.1,0.8-2.7,1.2-4.5,1.2
		h-3.8v-0.5c1.2-0.1,1.3-0.2,1.3-1.5v-5.7c0-1.3-0.1-1.4-1.2-1.5v-0.5H174.3z M173,104.2c0,1.1,0.2,1.5,1.3,1.5c2,0,3.4-1.6,3.4-4.3
		c0-1.4-0.4-2.6-1.1-3.2c-0.6-0.6-1.4-0.9-2.4-0.9c-0.5,0-0.9,0.1-0.9,0.2c-0.1,0.1-0.2,0.4-0.2,0.8V104.2z"/>
	<path class="st0" d="M181.7,103.9c0.7,0,1.7,0.7,1.7,1.9c0,1.4-1.3,2.2-2.5,2.5l-0.2-0.5c0.9-0.4,1.3-0.8,1.3-1.4
		c0-0.5-0.4-1-1.1-1.1c-0.1,0-0.2-0.2-0.2-0.5C180.7,104.2,181.2,103.9,181.7,103.9L181.7,103.9z"/>
	<path class="st0" d="M192.3,96.6c1.2,0,2,0.2,2.6,0.6c0.7,0.5,1.1,1.2,1.1,2.2c0,2-1.5,2.9-3,3.1c-0.2,0-0.5,0-0.6,0l-1-0.2v2
		c0,1.3,0.1,1.4,1.4,1.5v0.5h-4.6v-0.5c1.1-0.1,1.3-0.2,1.3-1.5v-5.7c0-1.3-0.1-1.4-1.2-1.5v-0.5H192.3z M191.3,101.7
		c0.2,0.1,0.5,0.1,0.8,0.1c0.6,0,1.7-0.4,1.7-2.4c0-1.7-1-2.2-1.9-2.2c-0.3,0-0.5,0.1-0.6,0.1c-0.1,0.1-0.1,0.2-0.1,0.5V101.7z"/>
	<path class="st0" d="M196.2,106.5c-0.6,0-1.1-0.5-1.1-1.1c0-0.7,0.5-1.1,1.1-1.1c0.6,0,1.1,0.5,1.1,1.1
		C197.4,106.1,196.9,106.5,196.2,106.5L196.2,106.5z"/>
	<path class="st0" d="M204.3,106.3v-0.5c0.9-0.1,1-0.3,0.7-1c-0.1-0.4-0.4-1.1-0.6-1.7h-2.9c-0.2,0.5-0.4,1-0.5,1.6
		c-0.2,0.7-0.2,0.9,0.9,1.1v0.5h-3.3l0-0.5c1-0.1,1.2-0.3,1.7-1.5l3.1-7.7l0.8-0.2c1,2.6,1.9,5.2,2.9,7.8c0.5,1.3,0.7,1.5,1.6,1.6
		v0.5H204.3z M203,99.1L203,99.1c-0.5,1.1-0.8,2.2-1.2,3.2h2.3L203,99.1z"/>
	<path class="st0" d="M210.9,106.5c-0.6,0-1.1-0.5-1.1-1.1c0-0.7,0.5-1.1,1.1-1.1c0.6,0,1.1,0.5,1.1,1.1
		C212,106.1,211.6,106.5,210.9,106.5L210.9,106.5z"/>
</g>
<g>
	<path class="st0" d="M82.3,88.6v-1.2c2.7-0.2,2.9-0.5,2.9-3.9l-0.1-13.8H85l-8.1,18.7H76l-7.4-18.3h-0.1L68,79.5
		c-0.1,2.9-0.1,4.5,0,5.8c0.1,1.6,0.8,1.9,3.2,2.1v1.2h-8.4v-1.2c2-0.2,2.7-0.7,2.9-2.1c0.2-1.1,0.5-2.8,0.7-6.5l0.5-7.1
		c0.3-4.2,0-4.6-3-4.9v-1.1h6.7l7.3,16.2l7.4-16.2h6.7v1.1c-2.9,0.3-3.1,0.5-3,3.7l0.4,13c0.1,3.4,0.2,3.6,3.1,3.9v1.2H82.3z"/>
	<path class="st0" d="M124,74.7c-2.3,0.2-2.9,0.8-4.2,2.4c-1,1.3-1.9,2.7-3,4.3c2,1.9,4.5,4.9,5.9,7.3l-0.2,0.4
		c-2.9-0.1-5-0.9-5.4-1.3c-0.5-0.5-1.7-1.8-2.9-3.1c-2.3,3.1-4.6,4.4-7,4.4c-4.6,0-7.2-3.4-7.2-6.5c0-3.1,2-4.4,5.1-6.5
		c-1.5-1.4-2.4-3-2.4-5c0-3.2,2.9-5.8,6.2-5.8c3.3,0,5.7,2.1,5.7,5c0,1.3-0.6,2.3-1.5,3c-0.7,0.6-1.7,1.3-2.9,2.1
		c1.1,0.9,3.3,2.8,5.7,5.1c0.7-1.1,1.3-2.1,1.9-3.4c0.7-1.6,0.4-2.1-2-2.4l0-1.1h8.2V74.7z M108.7,86.1c1.8,0,3.7-1.2,4.6-2.5
		c-2.3-2.4-4.3-4.2-7.3-6.8c-1.4,1.3-2.1,2.8-2.1,4.3C104,84.6,106.4,86.1,108.7,86.1L108.7,86.1z M108.5,66.6
		c-1.4,0-2.5,1.4-2.5,3.3c0,1.8,1,3,3.3,4.8c1.2-0.9,2.1-2.3,2.1-4.4C111.3,68.3,110.3,66.6,108.5,66.6L108.5,66.6z"/>
	<path class="st0" d="M152.6,78.9c-1.9,0.3-2.1,0.5-2.1,2.7v2.9c0,1.3,0,2.4,0.2,3.3c-2.1,0.5-5.2,1.3-8,1.3
		c-8,0-13.2-4.7-13.2-11.7c0-8.1,6.5-12.2,13.8-12.2c2.9,0,5.6,0.7,6.8,1c0.1,1.2,0.3,3.1,0.6,5.7l-1.2,0.2
		c-0.9-4.1-3.5-5.6-6.8-5.6c-4.6,0-8.4,3.9-8.4,10.3c0,5.2,2.7,10.9,8.9,10.9c0.9,0,1.8-0.1,2.4-0.5c0.6-0.4,0.9-0.9,0.9-2.1V82
		c0-2.5-0.2-2.7-3.8-3.1v-1.1h10V78.9z"/>
</g>
</svg>
